<svg data-v-423bf9ae="" xmlns="http://www.w3.org/2000/svg" viewBox="0 0 547 90" class="iconLeft"><!----><!----><!----><g data-v-423bf9ae="" id="eb9a64c6-fd7c-452b-af72-c816a76f5cf3" fill="#000000" transform="matrix(4.720691999836127,0,0,4.720691999836127,106.88433751749017,-1.8056637261336093)"><path d="M7.20 16.21L7.20 16.21Q7.17 16.23 7.14 16.23Q7.11 16.23 7.03 16.23L7.03 16.23Q6.83 16.23 6.57 16.16Q6.31 16.10 6.07 16.01Q5.82 15.92 5.65 15.81Q5.47 15.69 5.43 15.61L5.43 15.61Q5.42 15.41 5.42 15.20Q5.42 14.99 5.42 14.80L5.42 14.80Q5.42 13.23 5.65 11.52Q5.88 9.81 6.41 7.83L6.41 7.83Q6.47 7.63 6.53 7.33Q6.59 7.03 6.66 6.68L6.66 6.68Q6.33 6.94 5.87 7.53Q5.40 8.11 4.89 8.90Q4.38 9.69 3.87 10.63Q3.36 11.58 2.94 12.55Q2.52 13.52 2.22 14.48Q1.92 15.43 1.85 16.24L1.85 16.24Q1.18 16.04 0.92 15.85Q0.66 15.65 0.66 15.37L0.66 15.37Q0.66 15.12 0.81 14.66Q0.97 14.20 1.25 13.57Q1.53 12.94 1.93 12.16Q2.34 11.38 2.83 10.49L2.83 10.49Q3.39 9.46 3.93 8.57Q4.47 7.67 4.98 6.94Q5.50 6.22 6.00 5.68Q6.50 5.15 6.99 4.87L6.99 4.87Q7.18 4.87 7.51 4.97Q7.84 5.07 8.15 5.21Q8.47 5.35 8.71 5.49Q8.96 5.64 8.99 5.74L8.99 5.74Q8.79 6.13 8.53 6.92Q8.26 7.70 7.99 8.69Q7.71 9.69 7.47 10.80Q7.22 11.91 7.08 12.94L7.08 12.94Q7.41 12.17 7.83 11.33Q8.26 10.50 8.74 9.68Q9.21 8.86 9.71 8.09Q10.21 7.32 10.68 6.69Q11.16 6.05 11.57 5.57Q11.98 5.10 12.31 4.87L12.31 4.87Q12.50 4.87 12.83 4.97Q13.16 5.07 13.47 5.21Q13.79 5.35 14.04 5.49Q14.28 5.64 14.31 5.74L14.31 5.74Q13.86 6.54 13.52 7.69Q13.19 8.83 12.96 10.09Q12.73 11.35 12.61 12.59Q12.49 13.83 12.49 14.81L12.49 14.81Q12.49 15.13 12.49 15.48Q12.49 15.83 12.52 16.21L12.52 16.21Q12.32 16.21 12.05 16.16Q11.77 16.11 11.52 16.03Q11.26 15.95 11.05 15.84Q10.84 15.74 10.75 15.61L10.75 15.61Q10.74 15.41 10.74 15.20Q10.74 14.99 10.74 14.80L10.74 14.80Q10.74 13.23 10.97 11.52Q11.20 9.81 11.73 7.83L11.73 7.83Q11.79 7.63 11.86 7.29Q11.93 6.96 12.00 6.59L12.00 6.59Q11.61 6.79 11.11 7.34Q10.61 7.90 10.10 8.69Q9.59 9.48 9.09 10.44Q8.60 11.41 8.20 12.41Q7.80 13.41 7.53 14.40Q7.25 15.39 7.20 16.21ZM15.82 15.67L15.82 15.67Q15.02 15.58 14.55 14.97Q14.07 14.35 14.07 13.40L14.07 13.40Q14.07 12.84 14.24 12.24Q14.41 11.63 14.71 11.07Q15.02 10.50 15.44 10.00Q15.86 9.49 16.35 9.13L16.35 9.13Q17.12 8.55 17.79 8.55L17.79 8.55Q18.24 8.79 18.68 9.55L18.68 9.55Q18.75 9.55 18.80 9.54Q18.86 9.53 18.93 9.53L18.93 9.53Q19.67 9.53 19.67 10.85L19.67 10.85Q19.67 11.73 19.38 12.52Q19.10 13.31 18.59 13.96Q18.07 14.60 17.37 15.04Q16.66 15.48 15.82 15.67ZM16.53 11.26L16.53 11.26Q16.30 11.58 16.09 11.96Q15.88 12.33 15.72 12.72Q15.57 13.10 15.48 13.46Q15.40 13.82 15.40 14.10L15.40 14.10Q15.40 14.43 15.51 14.74Q15.62 15.05 15.76 15.09L15.76 15.09Q16.39 14.95 16.92 14.57Q17.44 14.18 17.83 13.61Q18.21 13.03 18.43 12.31Q18.65 11.58 18.65 10.75L18.65 10.75Q18.65 10.39 18.61 10.18Q18.56 9.97 18.47 9.81L18.47 9.81Q17.85 10.00 17.37 10.40Q16.88 10.81 16.53 11.26ZM21.01 10.22L21.01 10.22Q21.01 9.97 21.05 9.74Q21.08 9.52 21.20 9.36Q21.31 9.20 21.50 9.11Q21.70 9.02 22.02 9.02L22.02 9.02Q22.22 9.02 22.46 9.06Q22.71 9.10 22.82 9.21L22.82 9.21Q22.76 9.45 22.73 9.63Q22.69 9.81 22.67 10.03Q22.65 10.25 22.64 10.55Q22.62 10.85 22.61 11.33L22.61 11.33Q22.58 12.28 22.52 13.03Q22.46 13.78 22.23 14.52L22.23 14.52Q22.23 14.57 22.27 14.57L22.27 14.57Q22.48 14.42 22.75 14.13Q23.02 13.83 23.31 13.46Q23.60 13.09 23.90 12.67Q24.19 12.25 24.44 11.84L24.44 11.84Q24.78 11.26 25.19 10.37Q25.59 9.49 25.86 8.48L25.86 8.48Q25.94 8.48 26.08 8.52Q26.21 8.55 26.34 8.60Q26.47 8.65 26.58 8.71Q26.68 8.76 26.73 8.81L26.73 8.81Q26.70 9.41 26.44 10.04Q26.18 10.67 25.82 11.26Q25.45 11.84 25.05 12.36Q24.64 12.88 24.30 13.26L24.30 13.26Q23.63 14.04 22.95 14.66Q22.27 15.27 21.34 15.85L21.34 15.85Q20.97 15.71 20.76 15.48Q20.55 15.25 20.55 14.99L20.55 14.99Q20.55 14.83 20.63 14.61Q20.71 14.39 20.80 14.05Q20.90 13.71 20.98 13.19Q21.06 12.67 21.06 11.87L21.06 11.87Q21.06 11.41 21.04 10.94Q21.01 10.47 21.01 10.22ZM26.53 14.24L26.53 14.24Q26.53 14.11 26.55 13.92Q26.57 13.73 26.63 13.42Q26.68 13.10 26.78 12.66Q26.87 12.21 27.01 11.58L27.01 11.58Q27.03 11.44 27.13 11.13Q27.23 10.82 27.39 10.48Q27.55 10.14 27.78 9.81Q28.01 9.49 28.34 9.34L28.34 9.34Q28.57 9.39 28.97 9.63Q29.36 9.86 29.64 10.26L29.64 10.26Q29.32 10.63 29.10 10.99Q28.88 11.35 28.71 11.75Q28.53 12.14 28.39 12.56Q28.24 12.98 28.06 13.44L28.06 13.44Q27.90 13.83 27.78 14.25Q27.65 14.66 27.64 14.97L27.64 14.97Q27.64 15.22 27.63 15.32Q27.62 15.43 27.55 15.43L27.55 15.43Q27.50 15.43 27.33 15.36Q27.16 15.29 26.98 15.14Q26.81 14.99 26.67 14.77Q26.53 14.55 26.53 14.24ZM29.20 8.16L29.20 8.16Q29.20 8.08 29.25 7.91L29.25 7.91Q29.18 7.84 29.13 7.70Q29.08 7.56 29.08 7.45L29.08 7.45Q29.08 7.32 29.11 7.11Q29.15 6.89 29.20 6.64Q29.26 6.38 29.34 6.11Q29.43 5.84 29.51 5.61L29.51 5.61Q29.68 5.61 29.93 5.71Q30.17 5.80 30.42 5.94Q30.67 6.09 30.88 6.27Q31.09 6.44 31.21 6.59L31.21 6.59Q31.05 6.75 30.80 7.02Q30.55 7.29 30.31 7.59Q30.07 7.90 29.88 8.16Q29.68 8.43 29.62 8.54L29.62 8.54Q29.46 8.51 29.33 8.39Q29.20 8.27 29.20 8.16ZM34.83 9.38L34.83 9.38Q34.78 10.25 34.52 10.87Q34.27 11.49 33.80 11.96Q33.33 12.43 32.66 12.81Q31.99 13.19 31.09 13.54L31.09 13.54Q31.09 13.62 31.09 13.71Q31.08 13.80 31.08 13.90L31.08 13.90Q31.08 14.08 31.11 14.28Q31.14 14.48 31.21 14.64Q31.28 14.81 31.40 14.92Q31.53 15.02 31.72 15.02L31.72 15.02Q32.10 15.02 32.47 14.85Q32.83 14.69 33.16 14.44Q33.49 14.20 33.78 13.91Q34.06 13.62 34.29 13.38L34.29 13.38Q34.43 13.51 34.52 13.62L34.52 13.62Q33.89 14.46 33.15 15.02Q32.40 15.57 31.72 15.72L31.72 15.72Q30.76 15.61 30.22 15.02Q29.68 14.42 29.68 13.58L29.68 13.58Q29.68 13.01 29.84 12.41Q30.00 11.82 30.29 11.26Q30.58 10.71 30.96 10.22Q31.35 9.73 31.79 9.37Q32.23 9.00 32.70 8.79Q33.17 8.58 33.63 8.58L33.63 8.58Q34.27 8.67 34.83 9.38ZM33.87 9.84L33.87 9.84Q33.49 9.90 33.08 10.15Q32.68 10.40 32.32 10.82Q31.96 11.24 31.67 11.80Q31.37 12.36 31.21 13.01L31.21 13.01Q32.33 12.45 33.07 11.63Q33.81 10.81 33.87 9.84ZM39.44 12.43L39.44 12.43Q39.44 11.45 39.67 10.51Q39.90 9.56 40.32 8.71Q40.74 7.87 41.32 7.16Q41.90 6.45 42.60 5.94Q43.29 5.42 44.07 5.13Q44.86 4.84 45.68 4.84L45.68 4.84Q46.65 4.84 47.19 5.25Q47.73 5.66 47.73 6.38L47.73 6.38Q47.73 6.66 47.65 6.96Q47.57 7.25 47.43 7.54Q47.28 7.83 47.08 8.09Q46.89 8.36 46.65 8.55L46.65 8.55Q46.28 8.50 46.02 8.22Q45.75 7.95 45.68 7.59L45.68 7.59Q46.17 7.18 46.46 6.74Q46.75 6.30 46.75 5.94L46.75 5.94Q46.75 5.32 45.98 5.32L45.98 5.32Q45.65 5.32 45.31 5.45Q44.97 5.59 44.62 5.82Q44.27 6.06 43.94 6.40Q43.61 6.73 43.33 7.14L43.33 7.14Q41.38 9.94 41.38 12.87L41.38 12.87Q41.38 13.90 41.71 14.53Q42.03 15.16 42.56 15.27L42.56 15.27Q43.16 15.13 44.09 14.50Q45.01 13.87 46.10 12.87L46.10 12.87Q46.24 13.01 46.27 13.16L46.27 13.16Q45.86 13.69 45.43 14.18Q45.00 14.67 44.57 15.08Q44.14 15.48 43.73 15.79Q43.32 16.10 42.97 16.27L42.97 16.27Q41.23 16.24 40.33 15.27Q39.44 14.31 39.44 12.43ZM48.85 15.67L48.85 15.67Q48.05 15.58 47.57 14.97Q47.10 14.35 47.10 13.40L47.10 13.40Q47.10 12.84 47.26 12.24Q47.43 11.63 47.74 11.07Q48.05 10.50 48.47 10.00Q48.89 9.49 49.38 9.13L49.38 9.13Q50.15 8.55 50.82 8.55L50.82 8.55Q51.27 8.79 51.70 9.55L51.70 9.55Q51.77 9.55 51.83 9.54Q51.88 9.53 51.95 9.53L51.95 9.53Q52.70 9.53 52.70 10.85L52.70 10.85Q52.70 11.73 52.41 12.52Q52.12 13.31 51.61 13.96Q51.10 14.60 50.39 15.04Q49.69 15.48 48.85 15.67ZM49.56 11.26L49.56 11.26Q49.32 11.58 49.11 11.96Q48.90 12.33 48.75 12.72Q48.59 13.10 48.51 13.46Q48.43 13.82 48.43 14.10L48.43 14.10Q48.43 14.43 48.54 14.74Q48.65 15.05 48.79 15.09L48.79 15.09Q49.42 14.95 49.95 14.57Q50.47 14.18 50.86 13.61Q51.24 13.03 51.46 12.31Q51.67 11.58 51.67 10.75L51.67 10.75Q51.67 10.39 51.63 10.18Q51.59 9.97 51.49 9.81L51.49 9.81Q50.88 10.00 50.39 10.40Q49.91 10.81 49.56 11.26ZM53.35 14.28L53.35 14.28Q53.35 13.66 53.65 12.55Q53.94 11.44 54.47 9.95L54.47 9.95Q55.34 7.59 56.11 6.01Q56.87 4.44 57.60 3.56L57.60 3.56Q57.76 3.58 58.01 3.70Q58.25 3.81 58.49 3.94Q58.73 4.07 58.92 4.21Q59.11 4.35 59.16 4.44L59.16 4.44Q58.07 5.73 57.25 7.21Q56.42 8.69 55.73 10.61L55.73 10.61Q55.15 12.26 54.84 13.59Q54.53 14.91 54.53 15.79L54.53 15.79Q54.53 16.03 54.53 16.09Q54.53 16.14 54.54 16.20L54.54 16.20Q54.35 16.17 54.21 16.10Q54.07 16.03 54.03 15.93L54.03 15.93Q54.00 15.86 53.87 15.73Q53.75 15.60 53.65 15.53L53.65 15.53Q53.52 15.44 53.44 15.09Q53.35 14.73 53.35 14.28ZM56.66 14.28L56.66 14.28Q56.66 13.66 56.95 12.55Q57.25 11.44 57.78 9.95L57.78 9.95Q58.65 7.59 59.41 6.01Q60.17 4.44 60.90 3.56L60.90 3.56Q61.07 3.58 61.31 3.70Q61.56 3.81 61.80 3.94Q62.03 4.07 62.22 4.21Q62.41 4.35 62.47 4.44L62.47 4.44Q61.38 5.73 60.55 7.21Q59.72 8.69 59.04 10.61L59.04 10.61Q58.45 12.26 58.14 13.59Q57.83 14.91 57.83 15.79L57.83 15.79Q57.83 16.03 57.83 16.09Q57.83 16.14 57.85 16.20L57.85 16.20Q57.65 16.17 57.51 16.10Q57.37 16.03 57.33 15.93L57.33 15.93Q57.30 15.86 57.18 15.73Q57.05 15.60 56.95 15.53L56.95 15.53Q56.83 15.44 56.74 15.09Q56.66 14.73 56.66 14.28ZM64.93 9.38L64.93 9.38Q64.88 10.25 64.62 10.87Q64.37 11.49 63.90 11.96Q63.43 12.43 62.76 12.81Q62.09 13.19 61.19 13.54L61.19 13.54Q61.19 13.62 61.19 13.71Q61.18 13.80 61.18 13.90L61.18 13.90Q61.18 14.08 61.21 14.28Q61.24 14.48 61.31 14.64Q61.38 14.81 61.50 14.92Q61.63 15.02 61.82 15.02L61.82 15.02Q62.20 15.02 62.57 14.85Q62.93 14.69 63.26 14.44Q63.59 14.20 63.88 13.91Q64.16 13.62 64.39 13.38L64.39 13.38Q64.53 13.51 64.62 13.62L64.62 13.62Q63.99 14.46 63.25 15.02Q62.50 15.57 61.82 15.72L61.82 15.72Q60.86 15.61 60.32 15.02Q59.78 14.42 59.78 13.58L59.78 13.58Q59.78 13.01 59.94 12.41Q60.10 11.82 60.39 11.26Q60.68 10.71 61.06 10.22Q61.45 9.73 61.89 9.37Q62.33 9.00 62.80 8.79Q63.27 8.58 63.73 8.58L63.73 8.58Q64.37 8.67 64.93 9.38ZM63.97 9.84L63.97 9.84Q63.59 9.90 63.18 10.15Q62.78 10.40 62.42 10.82Q62.06 11.24 61.77 11.80Q61.47 12.36 61.31 13.01L61.31 13.01Q62.43 12.45 63.17 11.63Q63.91 10.81 63.97 9.84ZM65.66 12.71L65.66 12.71Q65.66 11.91 65.99 11.16Q66.32 10.42 66.86 9.84Q67.40 9.25 68.09 8.90Q68.78 8.54 69.52 8.54L69.52 8.54Q70.25 8.54 70.64 8.90Q71.04 9.27 71.04 9.94L71.04 9.94Q71.04 10.26 70.95 10.56Q70.85 10.86 70.71 11.10Q70.56 11.34 70.36 11.49Q70.17 11.63 69.97 11.63L69.97 11.63Q69.80 11.63 69.63 11.53Q69.45 11.42 69.34 11.26L69.34 11.26Q70.28 10.40 70.28 9.70L70.28 9.70Q70.28 9.30 69.96 9.30L69.96 9.30Q69.68 9.30 69.26 9.56Q68.84 9.83 68.45 10.26L68.45 10.26Q67.84 10.93 67.53 11.75Q67.21 12.57 67.21 13.47L67.21 13.47Q67.21 14.60 67.72 14.83L67.72 14.83Q67.93 14.80 68.21 14.70Q68.49 14.60 68.81 14.44Q69.13 14.28 69.48 14.07Q69.82 13.86 70.14 13.62L70.14 13.62Q70.20 13.66 70.24 13.75Q70.28 13.83 70.28 13.90L70.28 13.90Q70.04 14.20 69.73 14.48Q69.43 14.76 69.09 14.99Q68.75 15.22 68.44 15.38Q68.12 15.54 67.89 15.58L67.89 15.58Q67.42 15.54 67.02 15.29Q66.61 15.05 66.31 14.66Q66.01 14.27 65.84 13.76Q65.66 13.26 65.66 12.71ZM73.02 9.81L72.23 9.81Q72.16 9.73 72.10 9.46Q72.04 9.18 72.04 8.99L72.04 8.99Q72.41 9.02 72.74 9.04Q73.08 9.06 73.36 9.07L73.36 9.07Q73.57 8.65 73.82 8.24Q74.06 7.83 74.29 7.48Q74.52 7.14 74.73 6.90Q74.93 6.66 75.04 6.59L75.04 6.59Q75.18 6.59 75.40 6.64Q75.61 6.69 75.84 6.77Q76.06 6.85 76.24 6.93Q76.43 7.01 76.50 7.10L76.50 7.10Q76.08 7.63 75.78 8.09Q75.47 8.54 75.12 9.13L75.12 9.13Q75.40 9.13 75.69 9.11Q75.98 9.10 76.27 9.07L76.27 9.07Q76.34 9.14 76.38 9.25Q76.43 9.35 76.43 9.46L76.43 9.46Q75.74 9.72 74.76 9.74L74.76 9.74Q74.41 10.42 74.14 11.08Q73.86 11.75 73.68 12.36Q73.49 12.98 73.38 13.52Q73.28 14.07 73.28 14.50L73.28 14.50Q73.28 15.12 73.74 15.19L73.74 15.19Q74.16 15.13 74.54 14.98Q74.91 14.83 75.21 14.59L75.21 14.59Q75.29 14.71 75.31 14.80L75.31 14.80Q75.22 14.92 75.02 15.09Q74.82 15.26 74.58 15.42Q74.34 15.58 74.12 15.69Q73.89 15.81 73.78 15.82L73.78 15.82Q73.43 15.81 73.08 15.67Q72.73 15.53 72.44 15.32Q72.16 15.11 71.97 14.85Q71.79 14.59 71.79 14.34L71.79 14.34Q71.79 14 71.88 13.49Q71.97 12.98 72.14 12.38Q72.31 11.77 72.53 11.12Q72.76 10.46 73.02 9.81L73.02 9.81ZM76.34 14.24L76.34 14.24Q76.34 14.11 76.36 13.92Q76.38 13.73 76.44 13.42Q76.50 13.10 76.59 12.66Q76.68 12.21 76.82 11.58L76.82 11.58Q76.85 11.44 76.94 11.13Q77.04 10.82 77.20 10.48Q77.36 10.14 77.60 9.81Q77.83 9.49 78.15 9.34L78.15 9.34Q78.39 9.39 78.78 9.63Q79.17 9.86 79.45 10.26L79.45 10.26Q79.13 10.63 78.91 10.99Q78.69 11.35 78.52 11.75Q78.34 12.14 78.20 12.56Q78.05 12.98 77.87 13.44L77.87 13.44Q77.71 13.83 77.59 14.25Q77.46 14.66 77.45 14.97L77.45 14.97Q77.45 15.22 77.44 15.32Q77.43 15.43 77.36 15.43L77.36 15.43Q77.31 15.43 77.14 15.36Q76.97 15.29 76.80 15.14Q76.62 14.99 76.48 14.77Q76.34 14.55 76.34 14.24ZM79.02 8.16L79.02 8.16Q79.02 8.08 79.06 7.91L79.06 7.91Q78.99 7.84 78.94 7.70Q78.89 7.56 78.89 7.45L78.89 7.45Q78.89 7.32 78.93 7.11Q78.96 6.89 79.02 6.64Q79.07 6.38 79.16 6.11Q79.24 5.84 79.32 5.61L79.32 5.61Q79.49 5.61 79.74 5.71Q79.98 5.80 80.23 5.94Q80.49 6.09 80.70 6.27Q80.91 6.44 81.02 6.59L81.02 6.59Q80.86 6.75 80.61 7.02Q80.36 7.29 80.12 7.59Q79.88 7.90 79.69 8.16Q79.49 8.43 79.44 8.54L79.44 8.54Q79.27 8.51 79.14 8.39Q79.02 8.27 79.02 8.16ZM81.28 15.67L81.28 15.67Q80.49 15.58 80.01 14.97Q79.53 14.35 79.53 13.40L79.53 13.40Q79.53 12.84 79.70 12.24Q79.87 11.63 80.18 11.07Q80.49 10.50 80.91 10.00Q81.33 9.49 81.82 9.13L81.82 9.13Q82.59 8.55 83.26 8.55L83.26 8.55Q83.71 8.79 84.14 9.55L84.14 9.55Q84.21 9.55 84.27 9.54Q84.32 9.53 84.39 9.53L84.39 9.53Q85.13 9.53 85.13 10.85L85.13 10.85Q85.13 11.73 84.85 12.52Q84.56 13.31 84.05 13.96Q83.54 14.60 82.83 15.04Q82.12 15.48 81.28 15.67ZM82.00 11.26L82.00 11.26Q81.76 11.58 81.55 11.96Q81.34 12.33 81.19 12.72Q81.03 13.10 80.95 13.46Q80.86 13.82 80.86 14.10L80.86 14.10Q80.86 14.43 80.98 14.74Q81.09 15.05 81.23 15.09L81.23 15.09Q81.86 14.95 82.38 14.57Q82.91 14.18 83.29 13.61Q83.68 13.03 83.90 12.31Q84.11 11.58 84.11 10.75L84.11 10.75Q84.11 10.39 84.07 10.18Q84.03 9.97 83.93 9.81L83.93 9.81Q83.31 10.00 82.83 10.40Q82.35 10.81 82.00 11.26ZM88.07 8.39L88.07 8.39Q88.44 8.50 88.76 8.88Q89.08 9.27 89.24 9.73L89.24 9.73Q89.08 10.11 88.76 10.64Q88.44 11.17 88.12 11.72Q87.79 12.28 87.54 12.78Q87.28 13.27 87.23 13.59L87.23 13.59Q87.46 13.36 87.73 13.04Q88.00 12.73 88.26 12.41Q88.52 12.10 88.75 11.84Q88.97 11.58 89.10 11.45L89.10 11.45Q89.36 11.17 89.73 10.80Q90.09 10.43 90.49 10.10Q90.89 9.77 91.29 9.54Q91.70 9.31 92.04 9.31L92.04 9.31Q92.40 9.31 92.65 9.55Q92.89 9.80 93.03 10.07L93.03 10.07Q93.03 10.09 92.93 10.14Q92.82 10.19 92.62 10.42L92.62 10.42Q92.43 10.67 92.18 11.11Q91.94 11.55 91.71 12.06Q91.48 12.57 91.32 13.10Q91.17 13.64 91.17 14.07L91.17 14.07Q91.17 14.42 91.26 14.52Q91.35 14.62 91.52 14.62L91.52 14.62Q91.67 14.62 91.84 14.55Q92.01 14.48 92.11 14.48L92.11 14.48Q92.16 14.50 92.20 14.60Q92.23 14.69 92.23 14.76L92.23 14.76Q92.12 14.85 91.97 14.95Q91.81 15.05 91.64 15.13Q91.48 15.22 91.32 15.27Q91.15 15.33 91.03 15.33L91.03 15.33Q90.62 15.33 90.36 15.21Q90.10 15.09 89.96 14.90Q89.81 14.70 89.75 14.43Q89.70 14.15 89.70 13.85L89.70 13.85Q89.70 13.68 89.73 13.47Q89.75 13.26 89.84 12.97Q89.92 12.68 90.08 12.29Q90.23 11.89 90.47 11.33L90.47 11.33Q90.44 11.33 90.09 11.52Q89.74 11.72 89.33 12.12L89.33 12.12Q88.68 12.75 88.15 13.37Q87.63 13.99 87.08 14.74L87.08 14.74Q86.77 15.18 86.54 15.48Q86.31 15.78 86.14 15.88L86.14 15.88Q85.85 15.71 85.71 15.41Q85.57 15.11 85.50 14.78L85.50 14.78Q85.50 14.52 85.58 14.11Q85.65 13.71 85.79 13.21Q85.92 12.71 86.11 12.17Q86.31 11.62 86.55 11.07L86.55 11.07Q87.08 9.84 87.52 9.14Q87.96 8.44 88.07 8.39Z"></path></g><defs data-v-423bf9ae=""><linearGradient data-v-423bf9ae="" gradientTransform="rotate(25)" id="e7162881-9921-4d38-b8db-8f6990462dda" x1="0%" y1="0%" x2="100%" y2="0%"><stop data-v-423bf9ae="" offset="0%" style="stop-color: rgb(30, 11, 54); stop-opacity: 1;"></stop><stop data-v-423bf9ae="" offset="100%" style="stop-color: rgb(202, 55, 130); stop-opacity: 1;"></stop></linearGradient></defs><g data-v-423bf9ae="" id="df5c4814-0d99-4a5c-9594-daccad2cfa9a" transform="matrix(2.8125,0,0,2.8125,0,0)" stroke="none" fill="url(#e7162881-9921-4d38-b8db-8f6990462dda)"><path d="M0 32h32V0H0v32zM2.038 2.038h27.923v27.923H2.038V2.038z"></path><path d="M4.038 27.962h23.923V4.038H4.038v23.924zM21.049 8.25h3.402v3.402h-3.402V8.25zm0 6.049h3.402v3.402h-3.402v-3.402zm0 6.049h3.402v3.402h-3.402v-3.402zM14.299 8.25h3.402v3.402h-3.402V8.25zm0 6.049h3.402v3.402h-3.402v-3.402zm0 6.049h3.402v3.402h-3.402v-3.402zM7.549 8.25h3.402v3.402H7.549V8.25zm0 6.049h3.402v3.402H7.549v-3.402zm0 6.049h3.402v3.402H7.549v-3.402z"></path></g><!----></svg>